<svg width="44" height="42" viewBox="0 0 44 42" fill="none" xmlns="http://www.w3.org/2000/svg">
<g filter="url(#filter0_d_3145_393)">
<path d="M38.6384 14.2352L22.5219 1.18865C22.2111 0.937116 21.7889 0.937116 21.4783 1.18865L5.36162 14.2352C4.96796 14.5539 4.88243 15.165 5.1707 15.6002C5.45897 16.0355 6.0118 16.1299 6.40539 15.8113L22 3.18722L37.5946 15.8113C37.7519 15.9386 37.9346 15.9999 38.1158 15.9999C38.3878 15.9999 38.6562 15.8616 38.8292 15.6002C39.1176 15.165 39.0321 14.5539 38.6384 14.2352Z" fill="white"/>
<path d="M22.6005 1.0915L22.6005 1.09149C22.2439 0.802848 21.7561 0.802823 21.3996 1.0915C21.3996 1.0915 21.3996 1.0915 21.3996 1.09151L5.28297 14.138L5.28296 14.138C4.83688 14.4992 4.74436 15.1829 5.06649 15.6693C5.39319 16.1625 6.02995 16.276 6.48403 15.9085L6.48404 15.9085L22 3.34804L37.5159 15.9084C37.6953 16.0537 37.9058 16.1249 38.1158 16.1249C38.4313 16.1249 38.7381 15.9642 38.9334 15.6692C39.2557 15.1829 39.1631 14.4992 38.7171 14.138L38.6384 14.2352L38.717 14.138L22.6005 1.0915Z" stroke="white" stroke-width="0.25"/>
</g>
<g filter="url(#filter1_d_3145_393)">
<path d="M34.1333 16C33.6547 16 33.2666 16.4023 33.2666 16.8986V31.2026H26.3336V23.3946C26.3336 20.9168 24.3895 18.9011 22 18.9011C19.6105 18.9011 17.6664 20.9169 17.6664 23.3946V31.2027H10.7333V16.8987C10.7333 16.4024 10.3452 16.0001 9.86665 16.0001C9.38808 16.0001 9 16.4024 9 16.8987V32.1014C9 32.5977 9.38808 33 9.86665 33H18.5331C18.9888 33 19.3618 32.6349 19.3963 32.1713C19.3984 32.1503 19.3997 32.1274 19.3997 32.1014V23.3947C19.3997 21.9079 20.5662 20.6984 22 20.6984C23.4338 20.6984 24.6003 21.908 24.6003 23.3947V32.1014C24.6003 32.1272 24.6016 32.1498 24.6037 32.1705C24.6378 32.6344 25.0109 33 25.4669 33H34.1334C34.612 33 35 32.5977 35 32.1014V16.8987C34.9999 16.4023 34.6119 16 34.1333 16Z" fill="white"/>
<path d="M19.5209 32.1821C19.5233 32.1576 19.5247 32.131 19.5247 32.1014V23.3947C19.5247 21.9726 20.6395 20.8234 22 20.8234C23.3606 20.8234 24.4753 21.9727 24.4753 23.3947V32.1014C24.4753 32.1309 24.4767 32.1571 24.4791 32.1813C24.5185 32.7052 24.9415 33.125 25.4669 33.125H34.1334C34.6853 33.125 35.125 32.6624 35.125 32.1014V16.8987C35.1249 16.3376 34.6852 15.875 34.1333 15.875C33.5815 15.875 33.1416 16.3376 33.1416 16.8986V31.0776H26.4586V23.3946C26.4586 20.8521 24.4627 18.7761 22 18.7761C19.5373 18.7761 17.5414 20.8522 17.5414 23.3946V31.0777H10.8583V16.8987C10.8583 16.3377 10.4185 15.8751 9.86665 15.8751C9.31482 15.8751 8.875 16.3377 8.875 16.8987V32.1014C8.875 32.6624 9.31482 33.125 9.86665 33.125H18.5331C19.0582 33.125 19.4811 32.7057 19.5209 32.1821ZM19.5209 32.1821C19.5208 32.1826 19.5208 32.1832 19.5207 32.1837L19.3963 32.1713L19.521 32.1806C19.521 32.1811 19.5209 32.1816 19.5209 32.1821ZM10.7333 31.2027V31.0777L10.8583 31.2027H10.7333ZM17.6664 31.2027H17.5414L17.6664 31.0777V31.2027ZM26.3336 31.2026V31.0776L26.4586 31.2026H26.3336ZM33.2666 31.2026H33.1416L33.2666 31.0776V31.2026Z" stroke="white" stroke-width="0.25"/>
</g>
<defs>
<filter id="filter0_d_3145_393" x="0.75" y="0.75" width="42.5" height="23.5002" filterUnits="userSpaceOnUse" color-interpolation-filters="sRGB">
<feFlood flood-opacity="0" result="BackgroundImageFix"/>
<feColorMatrix in="SourceAlpha" type="matrix" values="0 0 0 0 0 0 0 0 0 0 0 0 0 0 0 0 0 0 127 0" result="hardAlpha"/>
<feOffset dy="4"/>
<feGaussianBlur stdDeviation="2"/>
<feComposite in2="hardAlpha" operator="out"/>
<feColorMatrix type="matrix" values="0 0 0 0 0 0 0 0 0 0 0 0 0 0 0 0 0 0 0.25 0"/>
<feBlend mode="normal" in2="BackgroundImageFix" result="effect1_dropShadow_3145_393"/>
<feBlend mode="normal" in="SourceGraphic" in2="effect1_dropShadow_3145_393" result="shape"/>
</filter>
<filter id="filter1_d_3145_393" x="4.75" y="15.75" width="34.5" height="25.5" filterUnits="userSpaceOnUse" color-interpolation-filters="sRGB">
<feFlood flood-opacity="0" result="BackgroundImageFix"/>
<feColorMatrix in="SourceAlpha" type="matrix" values="0 0 0 0 0 0 0 0 0 0 0 0 0 0 0 0 0 0 127 0" result="hardAlpha"/>
<feOffset dy="4"/>
<feGaussianBlur stdDeviation="2"/>
<feComposite in2="hardAlpha" operator="out"/>
<feColorMatrix type="matrix" values="0 0 0 0 0 0 0 0 0 0 0 0 0 0 0 0 0 0 0.25 0"/>
<feBlend mode="normal" in2="BackgroundImageFix" result="effect1_dropShadow_3145_393"/>
<feBlend mode="normal" in="SourceGraphic" in2="effect1_dropShadow_3145_393" result="shape"/>
</filter>
</defs>
</svg>
