<svg width="16" height="16" viewBox="0 0 16 16" fill="none" xmlns="http://www.w3.org/2000/svg">
<path d="M8 0C3.58866 0 0 3.58884 0 8C0 12.4112 3.58866 16 8 16C12.4113 16 16 12.4112 16 8C16 3.58884 12.4113 0 8 0ZM11.7575 7.10941L8.04212 10.8247C7.63453 11.2323 6.97419 11.2323 6.56656 10.8247L4.41644 8.67459C4.00881 8.26716 4.00881 7.6065 4.41644 7.19903C4.82406 6.79141 5.48438 6.79141 5.892 7.19903L7.30434 8.61122L10.2819 5.63378C10.6895 5.22616 11.3498 5.22616 11.7575 5.63378C12.1651 6.04128 12.1651 6.70194 11.7575 7.10941Z" fill="#FF9F2C"/>
</svg>
