<svg width="252" height="84" viewBox="0 0 252 84" fill="none" xmlns="http://www.w3.org/2000/svg">
<path d="M34.56 57.25L46.8725 67L40.9663 72.125L28.8413 62.375L34.56 57.25ZM47.185 40.1875V42.3438C47.185 45.8021 46.7163 48.9062 45.7788 51.6562C44.8621 54.4062 43.5392 56.75 41.81 58.6875C40.0808 60.6042 38.0392 62.0729 35.685 63.0938C33.3308 64.1146 30.7163 64.625 27.8413 64.625C24.9871 64.625 22.3725 64.1146 19.9975 63.0938C17.6225 62.0729 15.5704 60.6042 13.8413 58.6875C12.1121 56.75 10.7683 54.4062 9.81001 51.6562C8.87251 48.9062 8.40376 45.8021 8.40376 42.3438V40.1875C8.40376 36.7083 8.87251 33.6042 9.81001 30.875C10.7683 28.125 12.1017 25.7812 13.81 23.8438C15.5183 21.9062 17.56 20.4271 19.935 19.4062C22.31 18.3854 24.9246 17.875 27.7788 17.875C30.6538 17.875 33.2683 18.3854 35.6225 19.4062C37.9975 20.4271 40.0496 21.9062 41.7788 23.8438C43.5079 25.7812 44.8413 28.125 45.7788 30.875C46.7163 33.6042 47.185 36.7083 47.185 40.1875ZM37.7163 42.3438V40.125C37.7163 37.7083 37.4871 35.5833 37.0288 33.75C36.5913 31.9167 35.9454 30.375 35.0913 29.125C34.2579 27.875 33.2267 26.9375 31.9975 26.3125C30.7683 25.6667 29.3621 25.3438 27.7788 25.3438C26.1954 25.3438 24.7892 25.6667 23.56 26.3125C22.3308 26.9375 21.2996 27.875 20.4663 29.125C19.6329 30.375 18.9975 31.9167 18.56 33.75C18.1225 35.5833 17.9038 37.7083 17.9038 40.125V42.3438C17.9038 44.7396 18.1225 46.8646 18.56 48.7188C18.9975 50.5521 19.6329 52.1042 20.4663 53.375C21.3204 54.625 22.3621 55.5729 23.5913 56.2188C24.8413 56.8646 26.2579 57.1875 27.8413 57.1875C29.4246 57.1875 30.8204 56.8646 32.0288 56.2188C33.2579 55.5729 34.2892 54.625 35.1225 53.375C35.9767 52.1042 36.6225 50.5521 37.06 48.7188C37.4975 46.8646 37.7163 44.7396 37.7163 42.3438ZM77.8838 55.9062V30.1875H86.8838V64H78.415L77.8838 55.9062ZM78.8838 48.9688L81.54 48.9062C81.54 51.1562 81.2796 53.25 80.7588 55.1875C80.2379 57.1042 79.4567 58.7708 78.415 60.1875C77.3733 61.5833 76.0608 62.6771 74.4775 63.4688C72.8942 64.2396 71.0296 64.625 68.8838 64.625C67.2379 64.625 65.7171 64.3958 64.3213 63.9375C62.9463 63.4583 61.7588 62.7188 60.7588 61.7188C59.7796 60.6979 59.0088 59.3958 58.4463 57.8125C57.9046 56.2083 57.6338 54.2812 57.6338 52.0312V30.1875H66.6338V52.0938C66.6338 53.0938 66.7483 53.9375 66.9775 54.625C67.2275 55.3125 67.5713 55.875 68.0088 56.3125C68.4463 56.75 68.9567 57.0625 69.54 57.25C70.1442 57.4375 70.8108 57.5312 71.54 57.5312C73.3942 57.5312 74.8525 57.1562 75.915 56.4062C76.9983 55.6562 77.7588 54.6354 78.1963 53.3438C78.6546 52.0312 78.8838 50.5729 78.8838 48.9688ZM107.739 30.1875V64H98.7075V30.1875H107.739ZM98.145 21.375C98.145 20.0625 98.6033 18.9792 99.52 18.125C100.437 17.2708 101.666 16.8438 103.208 16.8438C104.728 16.8438 105.947 17.2708 106.864 18.125C107.801 18.9792 108.27 20.0625 108.27 21.375C108.27 22.6875 107.801 23.7708 106.864 24.625C105.947 25.4792 104.728 25.9062 103.208 25.9062C101.666 25.9062 100.437 25.4792 99.52 24.625C98.6033 23.7708 98.145 22.6875 98.145 21.375ZM146.563 56.9688V64H120.875V56.9688H146.563ZM146.063 35.375L124.5 64H118.469V58.6562L139.938 30.1875H146.063V35.375ZM142.875 30.1875V37.25H118.969V30.1875H142.875ZM183.605 56.9688V64H157.918V56.9688H183.605ZM183.105 35.375L161.543 64H155.511V58.6562L176.98 30.1875H183.105V35.375ZM179.918 30.1875V37.25H156.011V30.1875H179.918ZM203.241 16V64H194.21V16H203.241ZM230.721 64.625C228.096 64.625 225.742 64.2083 223.659 63.375C221.575 62.5208 219.805 61.3438 218.346 59.8438C216.909 58.3438 215.805 56.6042 215.034 54.625C214.263 52.625 213.878 50.5 213.878 48.25V47C213.878 44.4375 214.242 42.0938 214.971 39.9688C215.7 37.8438 216.742 36 218.096 34.4375C219.471 32.875 221.138 31.6771 223.096 30.8438C225.055 29.9896 227.263 29.5625 229.721 29.5625C232.117 29.5625 234.242 29.9583 236.096 30.75C237.95 31.5417 239.503 32.6667 240.753 34.125C242.023 35.5833 242.982 37.3333 243.628 39.375C244.273 41.3958 244.596 43.6458 244.596 46.125V49.875H217.721V43.875H235.753V43.1875C235.753 41.9375 235.523 40.8229 235.065 39.8438C234.628 38.8438 233.961 38.0521 233.065 37.4688C232.169 36.8854 231.023 36.5938 229.628 36.5938C228.44 36.5938 227.419 36.8542 226.565 37.375C225.711 37.8958 225.013 38.625 224.471 39.5625C223.95 40.5 223.555 41.6042 223.284 42.875C223.034 44.125 222.909 45.5 222.909 47V48.25C222.909 49.6042 223.096 50.8542 223.471 52C223.867 53.1458 224.419 54.1354 225.128 54.9688C225.857 55.8021 226.732 56.4479 227.753 56.9062C228.794 57.3646 229.971 57.5938 231.284 57.5938C232.909 57.5938 234.419 57.2812 235.815 56.6562C237.232 56.0104 238.45 55.0417 239.471 53.75L243.846 58.5C243.138 59.5208 242.169 60.5 240.94 61.4375C239.732 62.375 238.273 63.1458 236.565 63.75C234.857 64.3333 232.909 64.625 230.721 64.625Z" fill="white"/>
<path d="M34.56 57.25L35.4912 56.0741C34.9187 55.6207 34.1028 55.6455 33.5589 56.1329L34.56 57.25ZM46.8725 67L47.8556 68.1329C48.1928 67.8403 48.3822 67.4127 48.3721 66.9663C48.3621 66.5199 48.1537 66.1012 47.8037 65.8241L46.8725 67ZM40.9663 72.125L40.0263 73.2939C40.5917 73.7486 41.4014 73.7334 41.9493 73.2579L40.9663 72.125ZM28.8413 62.375L27.8402 61.2579C27.5123 61.5518 27.33 61.9749 27.3418 62.4151C27.3536 62.8552 27.5581 63.268 27.9013 63.5439L28.8413 62.375ZM45.7788 51.6562L44.359 51.1722L44.3557 51.1819L45.7788 51.6562ZM41.81 58.6875L42.9238 59.6923L42.9291 59.6863L41.81 58.6875ZM13.8413 58.6875L12.7221 59.6863L12.7275 59.6923L13.8413 58.6875ZM9.81001 51.6562L8.39021 52.1403L8.39355 52.1499L9.81001 51.6562ZM9.81001 30.875L8.39354 30.3814L8.39137 30.3877L9.81001 30.875ZM35.6225 19.4062L35.0257 20.7824L35.0302 20.7843L35.6225 19.4062ZM45.7788 30.875L44.359 31.359L44.3601 31.3623L45.7788 30.875ZM37.0288 33.75L35.5697 34.0982C35.571 34.1034 35.5722 34.1086 35.5735 34.1138L37.0288 33.75ZM35.0913 29.125L33.8432 29.9571C33.8464 29.9618 33.8496 29.9666 33.8528 29.9713L35.0913 29.125ZM31.9975 26.3125L31.2998 27.6404C31.3057 27.6435 31.3117 27.6465 31.3176 27.6496L31.9975 26.3125ZM23.56 26.3125L24.2399 27.6496C24.2458 27.6465 24.2518 27.6435 24.2577 27.6404L23.56 26.3125ZM18.56 48.7188L17.1001 49.0632L17.101 49.0669L18.56 48.7188ZM20.4663 53.375L19.2119 54.1975C19.2171 54.2055 19.2224 54.2134 19.2278 54.2213L20.4663 53.375ZM23.5913 56.2188L22.8935 57.5466L22.9027 57.5514L23.5913 56.2188ZM32.0288 56.2188L31.331 54.8909L31.3217 54.8959L32.0288 56.2188ZM35.1225 53.375L33.8776 52.5382L33.8744 52.5429L35.1225 53.375ZM37.06 48.7188L38.519 49.0669L38.5199 49.0632L37.06 48.7188ZM33.6288 58.4259L45.9413 68.1759L47.8037 65.8241L35.4912 56.0741L33.6288 58.4259ZM45.8894 65.8671L39.9832 70.9921L41.9493 73.2579L47.8556 68.1329L45.8894 65.8671ZM41.9062 70.9561L29.7812 61.2061L27.9013 63.5439L40.0263 73.2939L41.9062 70.9561ZM29.8423 63.4921L35.5611 58.3671L33.5589 56.1329L27.8402 61.2579L29.8423 63.4921ZM45.685 40.1875V42.3438H48.685V40.1875H45.685ZM45.685 42.3438C45.685 45.6679 45.2344 48.6045 44.359 51.1722L47.1985 52.1403C48.1982 49.208 48.685 45.9363 48.685 42.3438H45.685ZM44.3557 51.1819C43.4961 53.7608 42.2691 55.9203 40.6909 57.6887L42.9291 59.6863C44.8092 57.5797 46.2281 55.0517 47.2018 52.1306L44.3557 51.1819ZM40.6963 57.6827C39.11 59.441 37.2443 60.7826 35.0883 61.7176L36.2818 64.4699C38.8341 63.3632 41.0517 61.7673 42.9237 59.6923L40.6963 57.6827ZM35.0883 61.7176C32.9439 62.6474 30.5357 63.125 27.8413 63.125V66.125C30.8968 66.125 33.7178 65.5817 36.2818 64.4699L35.0883 61.7176ZM27.8413 63.125C25.1695 63.125 22.7591 62.6481 20.5898 61.7157L19.4052 64.4718C21.9859 65.5811 24.8047 66.125 27.8413 66.125V63.125ZM20.5898 61.7157C18.4132 60.7801 16.5391 59.4386 14.955 57.6827L12.7275 59.6923C14.6018 61.7698 16.8318 63.3657 19.4052 64.4718L20.5898 61.7157ZM14.9604 57.6887C13.3776 55.9153 12.1277 53.7489 11.2265 51.1626L8.39355 52.1499C9.40894 55.0636 10.8466 57.5847 12.7221 59.6863L14.9604 57.6887ZM11.2298 51.1722C10.3544 48.6045 9.90376 45.6679 9.90376 42.3438H6.90376C6.90376 45.9363 7.3906 49.208 8.39024 52.1403L11.2298 51.1722ZM9.90376 42.3438V40.1875H6.90376V42.3438H9.90376ZM9.90376 40.1875C9.90376 36.8411 10.3548 33.9062 11.2286 31.3623L8.39137 30.3877C7.39022 33.3021 6.90376 36.5755 6.90376 40.1875H9.90376ZM11.2265 31.3686C12.129 28.7788 13.3706 26.6102 14.9351 24.8358L12.6849 22.8517C10.8327 24.9523 9.4077 27.4712 8.39355 30.3814L11.2265 31.3686ZM14.9351 24.8358C16.4965 23.0649 18.3561 21.7176 20.5273 20.7843L19.3427 18.0282C16.7639 19.1366 14.5402 20.7476 12.6849 22.8517L14.9351 24.8358ZM20.5273 20.7843C22.6966 19.8519 25.107 19.375 27.7788 19.375V16.375C24.7422 16.375 21.9234 16.9189 19.3427 18.0282L20.5273 20.7843ZM27.7788 19.375C30.4732 19.375 32.8814 19.8526 35.0258 20.7824L36.2193 18.0301C33.6553 16.9183 30.8343 16.375 27.7788 16.375V19.375ZM35.0302 20.7843C37.203 21.7183 39.0756 23.0676 40.6596 24.8425L42.8979 22.845C41.0236 20.7449 38.792 19.1359 36.2148 18.0282L35.0302 20.7843ZM40.6596 24.8425C42.2401 26.6135 43.4786 28.7764 44.359 31.359L47.1985 30.391C46.2039 27.4736 44.7757 24.949 42.8979 22.845L40.6596 24.8425ZM44.3601 31.3623C45.234 33.9062 45.685 36.8411 45.685 40.1875H48.685C48.685 36.5755 48.1985 33.3021 47.1974 30.3877L44.3601 31.3623ZM39.2163 42.3438V40.125H36.2163V42.3438H39.2163ZM39.2163 40.125C39.2163 37.6179 38.979 35.3662 38.484 33.3862L35.5735 34.1138C35.9952 35.8005 36.2163 37.7988 36.2163 40.125H39.2163ZM38.4878 33.4018C38.0178 31.4324 37.3091 29.7119 36.3297 28.2787L33.8528 29.9713C34.5818 31.0381 35.1647 32.4009 35.5697 34.0982L38.4878 33.4018ZM36.3393 28.2929C35.3762 26.8483 34.1564 25.7275 32.6774 24.9754L31.3176 27.6496C32.2969 28.1475 33.1396 28.9017 33.8432 29.9571L36.3393 28.2929ZM32.6952 24.9846C31.2223 24.2108 29.5708 23.8438 27.7788 23.8438V26.8438C29.1534 26.8438 30.3144 27.1226 31.2998 27.6404L32.6952 24.9846ZM27.7788 23.8438C25.9868 23.8438 24.3352 24.2108 22.8623 24.9846L24.2577 27.6404C25.2432 27.1226 26.4041 26.8438 27.7788 26.8438V23.8438ZM22.8801 24.9754C21.4011 25.7275 20.1813 26.8483 19.2182 28.2929L21.7143 29.9571C22.4179 28.9017 23.2606 28.1475 24.2399 27.6496L22.8801 24.9754ZM19.2182 28.2929C18.265 29.7227 17.5696 31.4381 17.101 33.4018L20.019 34.0982C20.4254 32.3952 21.0008 31.0273 21.7143 29.9571L19.2182 28.2929ZM17.101 33.4018C16.6299 35.3759 16.4038 37.6222 16.4038 40.125H19.4038C19.4038 37.7945 19.6151 35.7907 20.019 34.0982L17.101 33.4018ZM16.4038 40.125V42.3438H19.4038V40.125H16.4038ZM16.4038 42.3438C16.4038 44.8273 16.6302 47.0716 17.1001 49.0632L20.0199 48.3743C19.6148 46.6575 19.4038 44.6519 19.4038 42.3438H16.4038ZM17.101 49.0669C17.5694 51.03 18.2637 52.7515 19.2119 54.1975L21.7206 52.5525C21.0022 51.4568 20.4256 50.0741 20.019 48.3706L17.101 49.0669ZM19.2278 54.2213C20.2074 55.6549 21.4283 56.7767 22.8936 57.5466L24.2889 54.8909C23.2959 54.3691 22.4334 53.5951 21.7047 52.5287L19.2278 54.2213ZM22.9027 57.5514C24.391 58.3203 26.0487 58.6875 27.8413 58.6875V55.6875C26.4671 55.6875 25.2915 55.4088 24.2798 54.8861L22.9027 57.5514ZM27.8413 58.6875C29.6326 58.6875 31.2783 58.3207 32.7358 57.5416L31.3217 54.8959C30.3626 55.4085 29.2165 55.6875 27.8413 55.6875V58.6875ZM32.7264 57.5466C34.1956 56.7747 35.4098 55.6482 36.3706 54.2071L33.8744 52.5429C33.1685 53.6018 32.3202 54.3712 31.3311 54.8909L32.7264 57.5466ZM36.3674 54.2118C37.3417 52.7623 38.0492 51.0357 38.519 49.0669L35.601 48.3706C35.1958 50.0684 34.6117 51.4461 33.8776 52.5382L36.3674 54.2118ZM38.5199 49.0632C38.9898 47.0716 39.2163 44.8273 39.2163 42.3438H36.2163C36.2163 44.6519 36.0052 46.6575 35.6001 48.3743L38.5199 49.0632ZM77.8838 55.9062H76.3838C76.3838 55.939 76.3848 55.9718 76.387 56.0045L77.8838 55.9062ZM77.8838 30.1875V28.6875C77.0553 28.6875 76.3838 29.3591 76.3838 30.1875H77.8838ZM86.8838 30.1875H88.3838C88.3838 29.3591 87.7122 28.6875 86.8838 28.6875V30.1875ZM86.8838 64V65.5C87.7122 65.5 88.3838 64.8284 88.3838 64H86.8838ZM78.415 64L76.9182 64.0982C76.97 64.8868 77.6247 65.5 78.415 65.5V64ZM78.8838 48.9688L78.8485 47.4692C78.034 47.4883 77.3838 48.1541 77.3838 48.9688H78.8838ZM81.54 48.9062H83.04C83.04 48.5023 82.8771 48.1154 82.5881 47.8332C82.2991 47.5509 81.9086 47.3972 81.5047 47.4067L81.54 48.9062ZM80.7588 55.1875L82.2063 55.5808L82.2073 55.5769L80.7588 55.1875ZM78.415 60.1875L79.6172 61.0846L79.6235 61.0761L78.415 60.1875ZM74.4775 63.4688L75.1341 64.8174C75.1388 64.8151 75.1436 64.8128 75.1483 64.8104L74.4775 63.4688ZM64.3213 63.9375L63.8276 65.354C63.8362 65.3569 63.8447 65.3598 63.8533 65.3626L64.3213 63.9375ZM60.7588 61.7188L59.6762 62.7571C59.6834 62.7646 59.6907 62.772 59.6981 62.7794L60.7588 61.7188ZM58.4463 57.8125L57.0251 58.2924C57.0276 58.2998 57.0302 58.3072 57.0328 58.3146L58.4463 57.8125ZM57.6338 30.1875V28.6875C56.8053 28.6875 56.1338 29.3591 56.1338 30.1875H57.6338ZM66.6338 30.1875H68.1338C68.1338 29.3591 67.4622 28.6875 66.6338 28.6875V30.1875ZM66.9775 54.625L65.5545 55.0993C65.5588 55.1122 65.5632 55.1249 65.5678 55.1376L66.9775 54.625ZM69.54 57.25L69.081 58.678C69.0858 58.6796 69.0906 58.6811 69.0954 58.6826L69.54 57.25ZM75.915 56.4062L75.0612 55.1729L75.05 55.1808L75.915 56.4062ZM78.1963 53.3438L76.7801 52.8492L76.7755 52.8625L78.1963 53.3438ZM79.3838 55.9062V30.1875H76.3838V55.9062H79.3838ZM77.8838 31.6875H86.8838V28.6875H77.8838V31.6875ZM85.3838 30.1875V64H88.3838V30.1875H85.3838ZM86.8838 62.5H78.415V65.5H86.8838V62.5ZM79.9118 63.9018L79.3805 55.808L76.387 56.0045L76.9182 64.0982L79.9118 63.9018ZM78.919 50.4683L81.5753 50.4058L81.5047 47.4067L78.8485 47.4692L78.919 50.4683ZM80.04 48.9062C80.04 51.0404 79.793 53.0019 79.3102 54.7981L82.2073 55.5769C82.7661 53.4981 83.04 51.2721 83.04 48.9062H80.04ZM79.3112 54.7942C78.8327 56.5554 78.1254 58.0492 77.2065 59.2989L79.6235 61.0761C80.7879 59.4925 81.6432 57.653 82.2063 55.5808L79.3112 54.7942ZM77.2129 59.2904C76.3136 60.4954 75.1842 61.4383 73.8067 62.1271L75.1483 64.8104C76.9375 63.9158 78.4331 62.6712 79.6172 61.0846L77.2129 59.2904ZM73.8209 62.1201C72.482 62.7719 70.851 63.125 68.8838 63.125V66.125C71.2082 66.125 73.3064 65.7072 75.1341 64.8174L73.8209 62.1201ZM68.8838 63.125C67.378 63.125 66.017 62.9155 64.7892 62.5124L63.8533 65.3626C65.4171 65.8761 67.0979 66.125 68.8838 66.125V63.125ZM64.8149 62.521C63.6468 62.114 62.6548 61.4935 61.8194 60.6581L59.6981 62.7794C60.8627 63.944 62.2458 64.8027 63.8276 65.354L64.8149 62.521ZM61.8413 60.6804C61.0341 59.8389 60.3643 58.7306 59.8597 57.3104L57.0328 58.3146C57.6532 60.061 58.525 61.5569 59.6762 62.7571L61.8413 60.6804ZM59.8674 57.3326C59.3919 55.9245 59.1338 54.1684 59.1338 52.0312H56.1338C56.1338 54.3941 56.4172 56.4922 57.0251 58.2924L59.8674 57.3326ZM59.1338 52.0312V30.1875H56.1338V52.0312H59.1338ZM57.6338 31.6875H66.6338V28.6875H57.6338V31.6875ZM65.1338 30.1875V52.0938H68.1338V30.1875H65.1338ZM65.1338 52.0938C65.1338 53.1983 65.2591 54.2131 65.5545 55.0993L68.4005 54.1507C68.2376 53.6619 68.1338 52.9892 68.1338 52.0938H65.1338ZM65.5678 55.1376C65.8792 55.9939 66.3299 56.7549 66.9481 57.3732L69.0694 55.2518C68.8126 54.9951 68.5758 54.6311 68.3872 54.1124L65.5678 55.1376ZM66.9481 57.3732C67.5524 57.9775 68.2685 58.4169 69.081 58.678L69.999 55.822C69.6449 55.7081 69.3401 55.5225 69.0694 55.2518L66.9481 57.3732ZM69.0954 58.6826C69.8636 58.921 70.6826 59.0312 71.54 59.0312V56.0312C70.9391 56.0312 70.4248 55.954 69.9846 55.8174L69.0954 58.6826ZM71.54 59.0312C73.577 59.0312 75.3775 58.6217 76.78 57.6317L75.05 55.1808C74.3275 55.6908 73.2113 56.0312 71.54 56.0312V59.0312ZM76.7688 57.6395C78.1267 56.6994 79.08 55.4102 79.617 53.825L76.7755 52.8625C76.4375 53.8606 75.8699 54.6131 75.0612 55.173L76.7688 57.6395ZM79.6124 53.8383C80.134 52.3444 80.3838 50.7158 80.3838 48.9688H77.3838C77.3838 50.43 77.1751 51.7181 76.7801 52.8492L79.6124 53.8383ZM107.739 30.1875H109.239C109.239 29.3591 108.567 28.6875 107.739 28.6875V30.1875ZM107.739 64V65.5C108.567 65.5 109.239 64.8284 109.239 64H107.739ZM98.7075 64H97.2075C97.2075 64.8284 97.8791 65.5 98.7075 65.5V64ZM98.7075 30.1875V28.6875C97.8791 28.6875 97.2075 29.3591 97.2075 30.1875H98.7075ZM99.52 18.125L98.4974 17.0276L99.52 18.125ZM106.864 18.125L105.841 19.2224C105.845 19.2262 105.849 19.23 105.854 19.2338L106.864 18.125ZM106.864 24.625L105.854 23.5162C105.849 23.52 105.845 23.5238 105.841 23.5276L106.864 24.625ZM99.52 24.625L98.4974 25.7224L99.52 24.625ZM106.239 30.1875V64H109.239V30.1875H106.239ZM107.739 62.5H98.7075V65.5H107.739V62.5ZM100.208 64V30.1875H97.2075V64H100.208ZM98.7075 31.6875H107.739V28.6875H98.7075V31.6875ZM99.645 21.375C99.645 20.4564 99.9463 19.778 100.543 19.2224L98.4974 17.0276C97.2603 18.1803 96.645 19.6686 96.645 21.375H99.645ZM100.543 19.2224C101.121 18.6834 101.953 18.3438 103.208 18.3438V15.3438C101.378 15.3438 99.7523 15.8582 98.4974 17.0276L100.543 19.2224ZM103.208 18.3438C104.434 18.3438 105.259 18.68 105.841 19.2224L107.886 17.0276C106.635 15.8617 105.022 15.3438 103.208 15.3438V18.3438ZM105.854 19.2338C106.467 19.7927 106.77 20.4678 106.77 21.375H109.77C109.77 19.6572 109.136 18.1657 107.874 17.0162L105.854 19.2338ZM106.77 21.375C106.77 22.2822 106.467 22.9573 105.854 23.5162L107.874 25.7338C109.136 24.5843 109.77 23.0928 109.77 21.375H106.77ZM105.841 23.5276C105.259 24.07 104.434 24.4062 103.208 24.4062V27.4062C105.022 27.4062 106.635 26.8883 107.886 25.7224L105.841 23.5276ZM103.208 24.4062C101.953 24.4062 101.121 24.0666 100.543 23.5276L98.4974 25.7224C99.7523 26.8918 101.378 27.4062 103.208 27.4062V24.4062ZM100.543 23.5276C99.9463 22.972 99.645 22.2936 99.645 21.375H96.645C96.645 23.0814 97.2603 24.5697 98.4974 25.7224L100.543 23.5276ZM146.562 56.9688H148.062C148.062 56.1403 147.391 55.4688 146.562 55.4688V56.9688ZM146.562 64V65.5C147.391 65.5 148.062 64.8284 148.062 64H146.562ZM120.875 64H119.375C119.375 64.8284 120.047 65.5 120.875 65.5V64ZM120.875 56.9688V55.4688C120.047 55.4688 119.375 56.1403 119.375 56.9688H120.875ZM146.062 35.375L147.261 36.2775C147.457 36.0174 147.562 35.7006 147.562 35.375H146.062ZM124.5 64V65.5C124.971 65.5 125.415 65.2787 125.698 64.9025L124.5 64ZM118.469 64H116.969C116.969 64.8284 117.64 65.5 118.469 65.5V64ZM118.469 58.6562L117.271 57.7531C117.075 58.0133 116.969 58.3303 116.969 58.6562H118.469ZM139.938 30.1875V28.6875C139.467 28.6875 139.023 28.9085 138.74 29.2843L139.938 30.1875ZM146.062 30.1875H147.562C147.562 29.3591 146.891 28.6875 146.062 28.6875V30.1875ZM142.875 30.1875H144.375C144.375 29.3591 143.703 28.6875 142.875 28.6875V30.1875ZM142.875 37.25V38.75C143.703 38.75 144.375 38.0784 144.375 37.25H142.875ZM118.969 37.25H117.469C117.469 38.0784 118.14 38.75 118.969 38.75V37.25ZM118.969 30.1875V28.6875C118.14 28.6875 117.469 29.3591 117.469 30.1875H118.969ZM145.062 56.9688V64H148.062V56.9688H145.062ZM146.562 62.5H120.875V65.5H146.562V62.5ZM122.375 64V56.9688H119.375V64H122.375ZM120.875 58.4688H146.562V55.4688H120.875V58.4688ZM144.864 34.4725L123.302 63.0975L125.698 64.9025L147.261 36.2775L144.864 34.4725ZM124.5 62.5H118.469V65.5H124.5V62.5ZM119.969 64V58.6562H116.969V64H119.969ZM119.666 59.5594L141.135 31.0907L138.74 29.2843L117.271 57.7531L119.666 59.5594ZM139.938 31.6875H146.062V28.6875H139.938V31.6875ZM144.562 30.1875V35.375H147.562V30.1875H144.562ZM141.375 30.1875V37.25H144.375V30.1875H141.375ZM142.875 35.75H118.969V38.75H142.875V35.75ZM120.469 37.25V30.1875H117.469V37.25H120.469ZM118.969 31.6875H142.875V28.6875H118.969V31.6875ZM183.605 56.9688H185.105C185.105 56.1403 184.433 55.4688 183.605 55.4688V56.9688ZM183.605 64V65.5C184.433 65.5 185.105 64.8284 185.105 64H183.605ZM157.918 64H156.418C156.418 64.8284 157.089 65.5 157.918 65.5V64ZM157.918 56.9688V55.4688C157.089 55.4688 156.418 56.1403 156.418 56.9688H157.918ZM183.105 35.375L184.303 36.2775C184.499 36.0174 184.605 35.7006 184.605 35.375H183.105ZM161.543 64V65.5C162.014 65.5 162.457 65.2787 162.741 64.9025L161.543 64ZM155.511 64H154.011C154.011 64.8284 154.683 65.5 155.511 65.5V64ZM155.511 58.6562L154.314 57.7531C154.117 58.0133 154.011 58.3303 154.011 58.6562H155.511ZM176.98 30.1875V28.6875C176.509 28.6875 176.066 28.9085 175.782 29.2843L176.98 30.1875ZM183.105 30.1875H184.605C184.605 29.3591 183.933 28.6875 183.105 28.6875V30.1875ZM179.918 30.1875H181.418C181.418 29.3591 180.746 28.6875 179.918 28.6875V30.1875ZM179.918 37.25V38.75C180.746 38.75 181.418 38.0784 181.418 37.25H179.918ZM156.011 37.25H154.511C154.511 38.0784 155.183 38.75 156.011 38.75V37.25ZM156.011 30.1875V28.6875C155.183 28.6875 154.511 29.3591 154.511 30.1875H156.011ZM182.105 56.9688V64H185.105V56.9688H182.105ZM183.605 62.5H157.918V65.5H183.605V62.5ZM159.418 64V56.9688H156.418V64H159.418ZM157.918 58.4688H183.605V55.4688H157.918V58.4688ZM181.907 34.4725L160.344 63.0975L162.741 64.9025L184.303 36.2775L181.907 34.4725ZM161.543 62.5H155.511V65.5H161.543V62.5ZM157.011 64V58.6562H154.011V64H157.011ZM156.709 59.5594L178.178 31.0907L175.782 29.2843L154.314 57.7531L156.709 59.5594ZM176.98 31.6875H183.105V28.6875H176.98V31.6875ZM181.605 30.1875V35.375H184.605V30.1875H181.605ZM178.418 30.1875V37.25H181.418V30.1875H178.418ZM179.918 35.75H156.011V38.75H179.918V35.75ZM157.511 37.25V30.1875H154.511V37.25H157.511ZM156.011 31.6875H179.918V28.6875H156.011V31.6875ZM203.241 16H204.741C204.741 15.1716 204.07 14.5 203.241 14.5V16ZM203.241 64V65.5C204.07 65.5 204.741 64.8284 204.741 64H203.241ZM194.21 64H192.71C192.71 64.8284 193.382 65.5 194.21 65.5V64ZM194.21 16V14.5C193.382 14.5 192.71 15.1716 192.71 16H194.21ZM201.741 16V64H204.741V16H201.741ZM203.241 62.5H194.21V65.5H203.241V62.5ZM195.71 64V16H192.71V64H195.71ZM194.21 17.5H203.241V14.5H194.21V17.5ZM223.659 63.375L223.09 64.7629L223.102 64.7677L223.659 63.375ZM218.346 59.8438L217.263 60.8816L217.271 60.8894L218.346 59.8438ZM215.034 54.625L213.634 55.1644L213.636 55.1694L215.034 54.625ZM214.971 39.9688L213.552 39.4819L214.971 39.9688ZM218.096 34.4375L216.97 33.4465L216.963 33.4551L218.096 34.4375ZM223.096 30.8438L223.684 32.224L223.696 32.2187L223.096 30.8438ZM240.753 34.125L239.614 35.1012L239.622 35.1105L240.753 34.125ZM243.628 39.375L242.197 39.8274L242.199 39.8316L243.628 39.375ZM244.596 49.875V51.375C245.425 51.375 246.096 50.7034 246.096 49.875H244.596ZM217.721 49.875H216.221C216.221 50.7034 216.893 51.375 217.721 51.375V49.875ZM217.721 43.875V42.375C216.893 42.375 216.221 43.0466 216.221 43.875H217.721ZM235.753 43.875V45.375C236.581 45.375 237.253 44.7034 237.253 43.875H235.753ZM235.065 39.8438L233.691 40.445C233.696 40.4566 233.701 40.4682 233.706 40.4797L235.065 39.8438ZM224.471 39.5625L223.172 38.8121C223.168 38.8194 223.164 38.8267 223.16 38.834L224.471 39.5625ZM223.284 42.875L221.817 42.5623C221.815 42.5685 221.814 42.5747 221.813 42.5808L223.284 42.875ZM223.471 52L222.046 52.4666C222.048 52.4743 222.051 52.4821 222.053 52.4898L223.471 52ZM225.128 54.9688L223.985 55.9402C223.989 55.9457 223.994 55.9511 223.999 55.9565L225.128 54.9688ZM227.753 56.9062L227.138 58.2747L227.148 58.2792L227.753 56.9062ZM235.815 56.6562L236.428 58.0253L236.437 58.0211L235.815 56.6562ZM239.471 53.75L240.575 52.7338C240.277 52.4109 239.853 52.2345 239.415 52.2511C238.976 52.2676 238.567 52.4755 238.294 52.8199L239.471 53.75ZM243.846 58.5L245.079 59.3551C245.479 58.7781 245.425 58.0004 244.95 57.4838L243.846 58.5ZM240.94 61.4375L240.03 60.2448L240.021 60.2524L240.94 61.4375ZM236.565 63.75L237.05 65.1695C237.055 65.1678 237.06 65.166 237.065 65.1642L236.565 63.75ZM230.721 63.125C228.255 63.125 226.095 62.7338 224.216 61.9823L223.102 64.7677C225.39 65.6829 227.937 66.125 230.721 66.125V63.125ZM224.228 61.9871C222.32 61.205 220.726 60.1395 219.422 58.7981L217.271 60.8894C218.883 62.548 220.831 63.8366 223.09 64.7629L224.228 61.9871ZM219.429 58.8059C218.131 57.4513 217.132 55.8804 216.431 54.0806L213.636 55.1694C214.477 57.3279 215.686 59.2362 217.263 60.8816L219.429 58.8059ZM216.433 54.0856C215.732 52.2661 215.378 50.3248 215.378 48.25H212.378C212.378 50.6752 212.794 52.9839 213.634 55.1644L216.433 54.0856ZM215.378 48.25V47H212.378V48.25H215.378ZM215.378 47C215.378 44.5802 215.722 42.4036 216.39 40.4556L213.552 39.4819C212.763 41.7839 212.378 44.2948 212.378 47H215.378ZM216.39 40.4556C217.062 38.4967 218.012 36.8249 219.23 35.4199L216.963 33.4551C215.472 35.1751 214.339 37.1908 213.552 39.4819L216.39 40.4556ZM219.222 35.4284C220.446 34.0382 221.927 32.9715 223.684 32.224L222.509 29.4635C220.349 30.3827 218.497 31.7118 216.97 33.4466L219.222 35.4284ZM223.696 32.2187C225.439 31.4585 227.438 31.0625 229.721 31.0625V28.0625C227.087 28.0625 224.67 28.5207 222.497 29.4688L223.696 32.2187ZM229.721 31.0625C231.952 31.0625 233.871 31.4309 235.507 32.1295L236.685 29.3705C234.613 28.4858 232.282 28.0625 229.721 28.0625V31.0625ZM235.507 32.1295C237.16 32.8354 238.521 33.8264 239.614 35.1012L241.891 33.1488C240.484 31.5069 238.74 30.248 236.685 29.3705L235.507 32.1295ZM239.622 35.1105C240.743 36.3977 241.607 37.961 242.197 39.8274L245.058 38.9226C244.356 36.7057 243.303 34.769 241.883 33.1395L239.622 35.1105ZM242.199 39.8316C242.79 41.6824 243.096 43.7753 243.096 46.125H246.096C246.096 43.5163 245.757 41.1093 245.056 38.9184L242.199 39.8316ZM243.096 46.125V49.875H246.096V46.125H243.096ZM244.596 48.375H217.721V51.375H244.596V48.375ZM219.221 49.875V43.875H216.221V49.875H219.221ZM217.721 45.375H235.753V42.375H217.721V45.375ZM237.253 43.875V43.1875H234.253V43.875H237.253ZM237.253 43.1875C237.253 41.7519 236.989 40.4149 236.424 39.2078L233.706 40.4797C234.058 41.231 234.253 42.1231 234.253 43.1875H237.253ZM236.439 39.2425C235.887 37.9804 235.03 36.9583 233.884 36.2118L232.246 38.7257C232.892 39.1459 233.368 39.7071 233.691 40.445L236.439 39.2425ZM233.884 36.2118C232.68 35.428 231.226 35.0938 229.628 35.0938V38.0938C230.82 38.0938 231.658 38.3428 232.246 38.7257L233.884 36.2118ZM229.628 35.0938C228.216 35.0938 226.914 35.4052 225.784 36.0943L227.346 38.6557C227.924 38.3031 228.664 38.0938 229.628 38.0938V35.0938ZM225.784 36.0943C224.698 36.7564 223.829 37.6756 223.172 38.8121L225.77 40.3129C226.197 39.5744 226.723 39.0353 227.346 38.6557L225.784 36.0943ZM223.16 38.834C222.554 39.9257 222.112 41.1756 221.817 42.5623L224.751 43.1877C224.997 42.0327 225.347 41.0743 225.782 40.291L223.16 38.834ZM221.813 42.5808C221.54 43.9429 221.409 45.418 221.409 47H224.409C224.409 45.582 224.527 44.3071 224.755 43.1692L221.813 42.5808ZM221.409 47V48.25H224.409V47H221.409ZM221.409 48.25C221.409 49.7434 221.616 51.1528 222.046 52.4666L224.897 51.5334C224.577 50.5555 224.409 49.465 224.409 48.25H221.409ZM222.053 52.4898C222.504 53.7928 223.143 54.9502 223.985 55.9402L226.27 53.9973C225.695 53.3206 225.231 52.4989 224.889 51.5102L222.053 52.4898ZM223.999 55.9565C224.871 56.954 225.923 57.7289 227.138 58.2747L228.367 55.5378C227.541 55.1669 226.842 54.6501 226.256 53.981L223.999 55.9565ZM227.148 58.2792C228.407 58.8332 229.795 59.0938 231.284 59.0938V56.0938C230.148 56.0938 229.181 55.896 228.357 55.5333L227.148 58.2792ZM231.284 59.0938C233.107 59.0938 234.827 58.742 236.428 58.0253L235.202 55.2872C234.011 55.8205 232.711 56.0938 231.284 56.0938V59.0938ZM236.437 58.0211C238.083 57.2708 239.488 56.1476 240.648 54.6801L238.294 52.8199C237.413 53.9357 236.38 54.7501 235.193 55.2914L236.437 58.0211ZM238.368 54.7662L242.743 59.5162L244.95 57.4838L240.575 52.7338L238.368 54.7662ZM242.614 57.6449C242.014 58.5101 241.164 59.3801 240.03 60.2448L241.85 62.6302C243.174 61.6199 244.262 60.5316 245.079 59.3551L242.614 57.6449ZM240.021 60.2524C238.96 61.0754 237.649 61.7755 236.065 62.3358L237.065 65.1642C238.897 64.5162 240.504 63.6746 241.859 62.6226L240.021 60.2524ZM236.08 62.3305C234.557 62.8506 232.778 63.125 230.721 63.125V66.125C233.04 66.125 235.156 65.8161 237.05 65.1695L236.08 62.3305Z" fill="white"/>
</svg>
