<svg width="38" height="36" viewBox="0 0 38 36" fill="none" xmlns="http://www.w3.org/2000/svg">
<g filter="url(#filter0_d_3145_398)">
<path d="M5.15385 9.10249H21.506C21.7448 9.78482 22.1867 10.3755 22.7711 10.7933C23.3555 11.2111 24.0536 11.4355 24.7692 11.4355C25.4849 11.4355 26.1829 11.2111 26.7673 10.7933C27.3517 10.3755 27.7937 9.78482 28.0325 9.10249H32.8462C33.1522 9.10249 33.4457 8.97953 33.662 8.76068C33.8784 8.54182 34 8.24499 34 7.93549C34 7.62598 33.8784 7.32915 33.662 7.11029C33.4457 6.89144 33.1522 6.76849 32.8462 6.76849H28.0325C27.7937 6.08615 27.3517 5.49543 26.7673 5.07763C26.1829 4.65982 25.4849 4.43549 24.7692 4.43549C24.0536 4.43549 23.3555 4.65982 22.7711 5.07763C22.1867 5.49543 21.7448 6.08615 21.506 6.76849H5.15385C4.84783 6.76849 4.55434 6.89144 4.33795 7.11029C4.12157 7.32915 4 7.62598 4 7.93549C4 8.24499 4.12157 8.54182 4.33795 8.76068C4.55434 8.97953 4.84783 9.10249 5.15385 9.10249Z" fill="white"/>
<path d="M32.8462 15.833H16.494C16.2552 15.1507 15.8132 14.5599 15.2289 14.1421C14.6445 13.7243 13.9464 13.5 13.2308 13.5C12.5151 13.5 11.8171 13.7243 11.2327 14.1421C10.6483 14.5599 10.2063 15.1507 9.96755 15.833H5.15385C4.84783 15.833 4.55434 15.956 4.33795 16.1748C4.12157 16.3937 4 16.6905 4 17C4 17.3095 4.12157 17.6063 4.33795 17.8252C4.55434 18.044 4.84783 18.167 5.15385 18.167H9.96755C10.2063 18.8493 10.6483 19.4401 11.2327 19.8579C11.8171 20.2757 12.5151 20.5 13.2308 20.5C13.9464 20.5 14.6445 20.2757 15.2289 19.8579C15.8132 19.4401 16.2552 18.8493 16.494 18.167H32.8462C33.1522 18.167 33.4457 18.044 33.662 17.8252C33.8784 17.6063 34 17.3095 34 17C34 16.6905 33.8784 16.3937 33.662 16.1748C33.4457 15.956 33.1522 15.833 32.8462 15.833Z" fill="white"/>
<path d="M32.8462 24.8975H28.0325C27.7937 24.2152 27.3517 23.6245 26.7673 23.2067C26.1829 22.7889 25.4849 22.5645 24.7692 22.5645C24.0536 22.5645 23.3555 22.7889 22.7711 23.2067C22.1867 23.6245 21.7448 24.2152 21.506 24.8975H5.15385C4.84783 24.8975 4.55434 25.0205 4.33795 25.2393C4.12157 25.4582 4 25.755 4 26.0645C4 26.374 4.12157 26.6709 4.33795 26.8897C4.55434 27.1086 4.84783 27.2315 5.15385 27.2315H21.506C21.7448 27.9139 22.1867 28.5046 22.7711 28.9224C23.3555 29.3402 24.0536 29.5645 24.7692 29.5645C25.4849 29.5645 26.1829 29.3402 26.7673 28.9224C27.3517 28.5046 27.7937 27.9139 28.0325 27.2315H32.8462C33.1522 27.2315 33.4457 27.1086 33.662 26.8897C33.8784 26.6709 34 26.374 34 26.0645C34 25.755 33.8784 25.4582 33.662 25.2393C33.4457 25.0205 33.1522 24.8975 32.8462 24.8975Z" fill="white"/>
</g>
<defs>
<filter id="filter0_d_3145_398" x="-1.07277" y="0" width="40.1455" height="40.1455" filterUnits="userSpaceOnUse" color-interpolation-filters="sRGB">
<feFlood flood-opacity="0" result="BackgroundImageFix"/>
<feColorMatrix in="SourceAlpha" type="matrix" values="0 0 0 0 0 0 0 0 0 0 0 0 0 0 0 0 0 0 127 0" result="hardAlpha"/>
<feOffset dy="3.07277"/>
<feGaussianBlur stdDeviation="1.53638"/>
<feColorMatrix type="matrix" values="0 0 0 0 0 0 0 0 0 0 0 0 0 0 0 0 0 0 0.25 0"/>
<feBlend mode="normal" in2="BackgroundImageFix" result="effect1_dropShadow_3145_398"/>
<feBlend mode="normal" in="SourceGraphic" in2="effect1_dropShadow_3145_398" result="shape"/>
</filter>
</defs>
</svg>
