<svg width="17" height="17" viewBox="0 0 17 17" fill="none" xmlns="http://www.w3.org/2000/svg">
<g clip-path="url(#clip0_3150_384)">
<path d="M14.7733 6.11204C15.0467 6.11204 15.3036 6.00565 15.4968 5.81239C15.6901 5.6191 15.7965 5.3622 15.7965 5.08887C15.7965 4.81554 15.6901 4.55864 15.4968 4.36538L14.484 3.35249C14.2907 3.1592 14.0338 3.05281 13.7605 3.05281C13.4872 3.05281 13.2303 3.1592 13.037 3.35249C12.6702 3.71928 12.6409 4.29748 12.9486 4.69834L12.7077 4.92414C11.8468 4.23621 10.8156 3.75311 9.68808 3.55001V3.03513C10.4987 3.00475 11.1489 2.33619 11.1489 1.51829C11.1489 0.681098 10.4678 0 9.63062 0H7.33578C6.49859 0 5.81749 0.681098 5.81749 1.51829C5.81749 2.33619 6.46769 3.00475 7.27832 3.03513V3.55001C6.14096 3.75492 5.10156 4.24473 4.23621 4.94226L4.02881 4.72678C4.36032 4.32528 4.33842 3.72808 3.96291 3.35249C3.76966 3.1592 3.51268 3.05281 3.23939 3.05281C2.9661 3.05281 2.70916 3.1592 2.5159 3.35249L1.50306 4.36538C1.3098 4.55864 1.20337 4.81554 1.20337 5.08887C1.20337 5.3622 1.3098 5.6191 1.50306 5.81235C1.69631 6.00565 1.95329 6.11204 2.22658 6.11204C2.45781 6.11204 2.67722 6.03558 2.85637 5.89508L3.08237 6.12992C2.21823 7.26776 1.70455 8.68564 1.70455 10.2214C1.70455 13.9591 4.74546 17 8.48322 17C12.221 17 15.2619 13.9591 15.2619 10.2214C15.2619 8.67496 14.7409 7.24807 13.8659 6.10621L14.1154 5.87234C14.2995 6.02743 14.5299 6.11204 14.7733 6.11204ZM14.0565 10.2214C14.0565 13.2945 11.5563 15.7947 8.48322 15.7947C5.41009 15.7947 2.90989 13.2945 2.90989 10.2214C2.90989 7.14823 5.41009 4.64803 8.48322 4.64803C11.5564 4.64807 14.0565 7.14823 14.0565 10.2214Z" fill="#FF9F2C"/>
<path d="M8.48331 5.92383C6.11365 5.92383 4.18579 7.85169 4.18579 10.2213C4.18579 12.591 6.11365 14.5188 8.48331 14.5188C10.853 14.5188 12.7808 12.591 12.7808 10.2213C12.7808 7.85169 10.853 5.92383 8.48331 5.92383ZM10.7667 9.02272L9.34758 10.2656C9.33709 10.4723 9.25384 10.6761 9.09594 10.834C8.75761 11.1723 8.20902 11.1723 7.87068 10.834C7.53234 10.4956 7.53234 9.94705 7.87068 9.60871C8.05787 9.42153 8.30934 9.33836 8.55402 9.35833L9.97259 8.11598C10.223 7.89673 10.6037 7.92188 10.823 8.17227C11.0423 8.4227 11.0171 8.80343 10.7667 9.02272Z" fill="#FF9F2C"/>
</g>
<defs>
<clipPath id="clip0_3150_384">
<rect width="17" height="17" fill="white"/>
</clipPath>
</defs>
</svg>
